<svg width="78" height="78" viewBox="0 0 78 78" fill="none" xmlns="http://www.w3.org/2000/svg">
<g clip-path="url(#clip0_61_53)">
<path d="M77.0707 39.7297C77.0707 36.5341 76.8114 34.2021 76.2502 31.7838H39.7593V46.2073H61.1786C60.7469 49.7917 58.415 55.1898 53.2327 58.8171L53.1601 59.3L64.6978 68.2381L65.4972 68.3179C72.8384 61.5378 77.0707 51.5622 77.0707 39.7297Z" fill="#4285F4"/>
<path d="M39.7592 77.7321C50.2529 77.7321 59.0625 74.2771 65.4972 68.3179L53.2327 58.8171C49.9507 61.1059 45.5458 62.7037 39.7592 62.7037C29.4814 62.7037 20.7582 55.9239 17.6486 46.5529L17.1928 46.5916L5.19571 55.8763L5.03882 56.3124C11.4301 69.0086 24.5582 77.7321 39.7592 77.7321Z" fill="#34A853"/>
<path d="M17.6485 46.5529C16.828 44.1346 16.3531 41.5433 16.3531 38.866C16.3531 36.1884 16.828 33.5975 17.6053 31.1792L17.5836 30.6641L5.43612 21.2303L5.03868 21.4193C2.40454 26.6879 0.893066 32.6043 0.893066 38.866C0.893066 45.1278 2.40454 51.0438 5.03868 56.3124L17.6485 46.5529Z" fill="#FBBC05"/>
<path d="M39.7592 15.0281C47.0573 15.0281 51.9802 18.1805 54.7873 20.815L65.7562 10.1052C59.0196 3.84343 50.2529 0 39.7592 0C24.5582 0 11.4301 8.7232 5.03882 21.4193L17.6055 31.1792C20.7582 21.8081 29.4814 15.0281 39.7592 15.0281Z" fill="#EB4335"/>
</g>
<defs>
<clipPath id="clip0_61_53">
<rect width="78" height="78" fill="white"/>
</clipPath>
</defs>
</svg>
